<svg id="Group_1518" data-name="Group 1518" xmlns="http://www.w3.org/2000/svg" width="118.398" height="25.598" viewBox="0 0 118.398 25.598">
  <text id="ConsentForm.com" transform="translate(75.398 15.117)" fill="#231f20" font-size="9" font-family="Montserrat-SemiBold, Montserrat" font-weight="600"><tspan x="-42.853" y="0">ConsentForm.com</tspan></text>
  <g id="Group_1422" data-name="Group 1422">
    <path id="Path_64" data-name="Path 64" d="M-48.693-533.183c-.6-.847-1.919-1.1-3.7-.83a2.821,2.821,0,0,1,2.53.9c1.492,2.171-2.571,7.552-9.073,12.019s-12.983,6.327-14.474,4.156c-.608-.885-.293-2.3.732-3.973-2.027,2.591-2.856,4.837-1.987,6.068,1.651,2.338,8.8.126,15.977-4.939S-47.042-530.845-48.693-533.183Z" transform="translate(78.283 539.505)" fill="#ff872c"/>
    <path id="Path_65" data-name="Path 65" d="M31.894-591.951l5.5,2.183L49.1-598.953l-11.52,14.381Z" transform="translate(-19.735 598.953)" fill="#ff872c"/>
    <path id="Path_66" data-name="Path 66" d="M180.915-516.591a17.96,17.96,0,0,0-.889-3.953l.635-.579A11.455,11.455,0,0,1,180.915-516.591Z" transform="translate(-155.552 527.593)" fill="#00adf8"/>
    <path id="Path_67" data-name="Path 67" d="M-24.882-583.13a5.68,5.68,0,0,0-1.431-1.468l-12.367,2.661a20.807,20.807,0,0,1,4.518,15.014s.6-7.868-7.755-16.037l16.225-3.313a5.992,5.992,0,0,1,1.863,2.353Z" transform="translate(47.94 587.328)" fill="#00adf8"/>
    <path id="Path_68" data-name="Path 68" d="M-85.6-516.71l-2.6,2.174a16.7,16.7,0,0,1,8.141,10.127s-1.732-5.27-10.767-9.675l4.546-3.473Z" transform="translate(92.781 524.324)" fill="#00adf8"/>
    <path id="Path_69" data-name="Path 69" d="M-110.605-454.407l-1.732,2.485a13.838,13.838,0,0,1,9.487,4.913,17.908,17.908,0,0,0-11.52-3.877s1.159-1.805,2.918-4.066Z" transform="translate(114.37 466.924)" fill="#00adf8"/>
  </g>
</svg>
