<svg xmlns="http://www.w3.org/2000/svg" width="74" height="74" viewBox="0 0 74 74">
  <g id="Group_1535" data-name="Group 1535" transform="translate(-305 -2268)">
    <rect id="Rectangle_324" data-name="Rectangle 324" width="74" height="74" rx="18" transform="translate(305 2268)" fill="#fff0e5"/>
    <g id="Group_1516" data-name="Group 1516" transform="translate(319.105 2284.801)">
      <g id="Group_1422" data-name="Group 1422">
        <path id="Path_64" data-name="Path 64" d="M-33.967-532.661c-.933-1.321-2.993-1.71-5.773-1.294,1.869-.048,3.253.4,3.946,1.411,2.326,3.386-4.009,11.779-14.15,18.745s-20.248,9.867-22.574,6.481c-.948-1.38-.457-3.59,1.142-6.2-3.161,4.04-4.455,7.544-3.1,9.463,2.575,3.646,13.731.2,24.917-7.7S-31.392-529.015-33.967-532.661Z" transform="translate(80.114 542.521)" fill="#ff872c"/>
        <path id="Path_65" data-name="Path 65" d="M31.894-588.032l8.572,3.405,18.259-14.326L40.76-576.525Z" transform="translate(-12.931 598.953)" fill="#ff872c"/>
        <path id="Path_66" data-name="Path 66" d="M181.413-514.056a28.011,28.011,0,0,0-1.387-6.165l.991-.9A17.866,17.866,0,0,1,181.413-514.056Z" transform="translate(-141.856 531.214)" fill="#00adf8"/>
        <path id="Path_67" data-name="Path 67" d="M-15.35-581.371a8.859,8.859,0,0,0-2.231-2.29l-19.287,4.15A32.45,32.45,0,0,1-29.822-556.1s.939-12.271-12.095-25.011l25.3-5.167a9.345,9.345,0,0,1,2.906,3.67Z" transform="translate(51.311 587.918)" fill="#00adf8"/>
        <path id="Path_68" data-name="Path 68" d="M-82.677-516.236l-4.051,3.391a26.037,26.037,0,0,1,12.7,15.793s-2.7-8.22-16.792-15.089l7.089-5.416Z" transform="translate(93.876 528.11)" fill="#00adf8"/>
        <path id="Path_69" data-name="Path 69" d="M-108.5-454.1l-2.7,3.875a21.58,21.58,0,0,1,14.8,7.662,27.93,27.93,0,0,0-17.966-6.047s1.808-2.815,4.55-6.341Z" transform="translate(114.37 473.623)" fill="#00adf8"/>
      </g>
    </g>
  </g>
</svg>
