<svg xmlns="http://www.w3.org/2000/svg" width="74" height="74" viewBox="0 0 74 74">
  <g id="Group_1536" data-name="Group 1536" transform="translate(-657 -2268)">
    <rect id="Rectangle_429" data-name="Rectangle 429" width="74" height="74" rx="18" transform="translate(657 2268)" fill="#e6f7ff"/>
    <g id="Group_1429" data-name="Group 1429" transform="translate(669.09 2288.402)">
      <path id="Path_86" data-name="Path 86" d="M64.146,136.366c-.542-.014-1.086-.019-1.627,0a.822.822,0,0,1-.465-.1,2.294,2.294,0,1,0,.033,1.389c.7-.062,1.383-.013,2.062-.033.5-.015.789-.232.8-.6S64.662,136.379,64.146,136.366Zm-4.27,1.839a1.185,1.185,0,1,1,1.185-1.185A1.185,1.185,0,0,1,59.876,138.206Z" transform="translate(-52.134 -119.779)" fill="#00a1ed"/>
      <path id="Path_87" data-name="Path 87" d="M53.009,159.608a4.258,4.258,0,0,0-.5-.015q-4.337,0-8.675,0a2.475,2.475,0,0,0-2.76,2.755v1.483l-.113.084a2.292,2.292,0,1,0,1.461-.025l-.082-.062c0-.489,0-1.028,0-1.567,0-1.033.37-1.4,1.412-1.4q4.359,0,8.717,0a3.255,3.255,0,0,0,.581-.033.613.613,0,0,0-.041-1.221Zm-10.183,6.553a1.185,1.185,0,1,1-1.185-1.185A1.185,1.185,0,0,1,42.827,166.162Z" transform="translate(-39.431 -137.181)" fill="#00a1ed"/>
      <path id="Path_88" data-name="Path 88" d="M78.6,175.186c-.318-.017-.638,0-.958-.01a8.081,8.081,0,0,1-1.3-.034c-.084-.114-.165-.218-.245-.318a2.295,2.295,0,1,0,.076,1.849c.049-.069.1-.141.148-.216a1.01,1.01,0,0,1,.476-.061c.6,0,1.194,0,1.791-.008a.606.606,0,0,0,.669-.587A.631.631,0,0,0,78.6,175.186ZM74.036,177.1a1.185,1.185,0,1,1,1.185-1.185A1.185,1.185,0,0,1,74.036,177.1Z" transform="translate(-62.033 -146.936)" fill="#00a1ed"/>
      <path id="Path_89" data-name="Path 89" d="M152.752,173.538a2.3,2.3,0,0,0-2.189,1.6,1.565,1.565,0,0,1-.468.035c-.6.005-1.195-.008-1.791.015a.613.613,0,0,0-.613.611.6.6,0,0,0,.63.585c.208.011.416.005.625.005h1.583a2.294,2.294,0,1,0,2.224-2.854Zm.038,3.565a1.185,1.185,0,1,1,1.185-1.185A1.185,1.185,0,0,1,152.79,177.1Z" transform="translate(-115.164 -146.936)" fill="#00a1ed"/>
      <path id="Path_90" data-name="Path 90" d="M170.919,163.945c-.051-.037-.1-.074-.154-.111,0-.537,0-1.091,0-1.645a2.439,2.439,0,0,0-2.581-2.6q-4.483-.006-8.965,0a2.953,2.953,0,0,0-.416.019.608.608,0,0,0-.059,1.2,2.563,2.563,0,0,0,.579.047q3.336,0,6.672,0c.806,0,1.612-.006,2.418.007a1.013,1.013,0,0,1,1.027.761,10.048,10.048,0,0,1,.032,2.231,2.294,2.294,0,1,0,1.448.084Zm-.814,3.4a1.185,1.185,0,1,1,1.185-1.185A1.185,1.185,0,0,1,170.105,167.345Z" transform="translate(-122.546 -137.178)" fill="#00a1ed"/>
      <path id="Path_91" data-name="Path 91" d="M167.292,134.716a2.3,2.3,0,0,0-2.2,1.646c-.427,0-.816,0-1.2,0a4.7,4.7,0,0,0-1.163.056.566.566,0,0,0-.489.59.6.6,0,0,0,.543.593,3.257,3.257,0,0,0,.458.02c.616.02,1.235-.045,1.851.026a2.295,2.295,0,1,0,2.2-2.931Zm.038,3.377a1.185,1.185,0,1,1,1.185-1.185A1.185,1.185,0,0,1,167.33,138.093Z" transform="translate(-125.339 -119.779)" fill="#00a1ed"/>
      <g id="Group_1428" data-name="Group 1428" transform="translate(12.025)">
        <path id="Path_92" data-name="Path 92" d="M99.407,85a9.939,9.939,0,0,0-9.927,9.927V95.2h2.1v-.274a7.823,7.823,0,0,1,15.646,0V95.2h2.1v-.274A9.939,9.939,0,0,0,99.407,85Z" transform="translate(-86.468 -85)" fill="#001730"/>
        <path id="Path_93" data-name="Path 93" d="M104.538,109.043c-.12,0-8.2-.64-12.3-4.08,0,0-2.82,3.121-12.3,4.02.12,0-4.44,16.862,12.281,26.3C92.216,135.287,107.658,128.086,104.538,109.043ZM92.214,132.166c-13.281-7.5-9.659-20.89-9.754-20.89,7.53-.715,9.77-3.193,9.77-3.193,3.257,2.732,9.675,3.241,9.77,3.241C104.478,126.447,92.214,132.166,92.214,132.166Z" transform="translate(-79.454 -98.965)" fill="#001730"/>
        <path id="Path_94" data-name="Path 94" d="M118.89,142.055A2.64,2.64,0,1,0,115,144.384l-.765,3.822h3.991l-.714-3.833A2.64,2.64,0,0,0,118.89,142.055Z" transform="translate(-103.347 -123.066)" fill="#00a1ed"/>
      </g>
    </g>
  </g>
</svg>
