<svg id="Group_1519" data-name="Group 1519" xmlns="http://www.w3.org/2000/svg" width="111.232" height="25.598" viewBox="0 0 111.232 25.598">
  <g id="Group_1427" data-name="Group 1427" transform="translate(37.055 11.713)">
    <path id="Path_76" data-name="Path 76" d="M214.422,148.555v-7.974h2.9a4.333,4.333,0,0,1,1.713.314A3.441,3.441,0,0,1,221,143.012a4.758,4.758,0,0,1,.247,1.544,4.669,4.669,0,0,1-.275,1.645,3.512,3.512,0,0,1-.792,1.258,3.563,3.563,0,0,1-1.241.808,4.38,4.38,0,0,1-1.623.286Zm5.267-4a3.392,3.392,0,0,0-.157-1.056,2.364,2.364,0,0,0-.46-.831,2.054,2.054,0,0,0-.747-.539,2.521,2.521,0,0,0-1.005-.191h-1.348V147.2h1.348a2.426,2.426,0,0,0,1.016-.2,2.085,2.085,0,0,0,.741-.556,2.477,2.477,0,0,0,.455-.837A3.356,3.356,0,0,0,219.689,144.557Z" transform="translate(-214.422 -140.525)" fill="#1a1818"/>
    <path id="Path_77" data-name="Path 77" d="M254.052,143.445v5.11H252.5v-7.974h1.2l4.155,5.233v-5.222h1.55v7.962h-1.258Z" transform="translate(-244.439 -140.525)" fill="#1a1818"/>
    <path id="Path_78" data-name="Path 78" d="M290.741,144.345A4.2,4.2,0,0,1,291,142.9a4,4,0,0,1,.747-1.275,3.775,3.775,0,0,1,1.2-.91,3.619,3.619,0,0,1,1.617-.348,3.444,3.444,0,0,1,1.848.483,2.974,2.974,0,0,1,1.151,1.258l-1.19.82a1.813,1.813,0,0,0-.348-.567,1.775,1.775,0,0,0-.466-.365,2.1,2.1,0,0,0-.522-.2,2.318,2.318,0,0,0-.517-.062,1.924,1.924,0,0,0-.966.236,2.178,2.178,0,0,0-.691.612,2.74,2.74,0,0,0-.415.854,3.342,3.342,0,0,0-.14.949,3.19,3.19,0,0,0,.163,1.016,2.741,2.741,0,0,0,.46.859,2.325,2.325,0,0,0,.713.6,1.88,1.88,0,0,0,.91.225,2.175,2.175,0,0,0,.528-.068,2.016,2.016,0,0,0,.522-.213,1.987,1.987,0,0,0,.466-.376,1.85,1.85,0,0,0,.348-.556l1.269.73a2.336,2.336,0,0,1-.522.792,3.334,3.334,0,0,1-.781.578,4.051,4.051,0,0,1-.921.359,3.839,3.839,0,0,1-.955.124,3.246,3.246,0,0,1-1.522-.359,3.987,3.987,0,0,1-1.19-.938,4.361,4.361,0,0,1-1.05-2.813Z" transform="translate(-274.58 -140.358)" fill="#1a1818"/>
    <path id="Path_79" data-name="Path 79" d="M335.337,146.5a1.892,1.892,0,0,1-.18.825,2.082,2.082,0,0,1-.483.652,2.174,2.174,0,0,1-.707.427,2.44,2.44,0,0,1-.865.152h-3.751v-7.974h3.83a1.576,1.576,0,0,1,.752.18,1.882,1.882,0,0,1,.573.466,2.138,2.138,0,0,1,.365.651,2.193,2.193,0,0,1,.129.735,2.091,2.091,0,0,1-.3,1.106,1.875,1.875,0,0,1-.842.747,2,2,0,0,1,1.084.753A2.126,2.126,0,0,1,335.337,146.5Zm-5.211-5.233v2.943h2.74a1.224,1.224,0,0,0,.545-.123,1.446,1.446,0,0,0,.724-.792,1.536,1.536,0,0,0,.1-.556,1.707,1.707,0,0,0-.1-.573,1.4,1.4,0,0,0-.27-.466,1.331,1.331,0,0,0-.415-.314,1.176,1.176,0,0,0-.522-.118Zm4.425,5.1a1.636,1.636,0,0,0-.1-.567,1.478,1.478,0,0,0-.724-.82,1.183,1.183,0,0,0-.545-.129h-3.055v3.021H333.1a1.358,1.358,0,0,0,.573-.123,1.421,1.421,0,0,0,.46-.331,1.6,1.6,0,0,0,.3-.483A1.488,1.488,0,0,0,334.551,146.365Z" transform="translate(-305.015 -140.525)" fill="#00a1ed"/>
    <path id="Path_80" data-name="Path 80" d="M364.78,148.555v-7.974h.775v7.277h4.616v.7Z" transform="translate(-332.941 -140.525)" fill="#00a1ed"/>
    <path id="Path_81" data-name="Path 81" d="M395.037,148.4a3.373,3.373,0,0,1-1.522-.343,3.779,3.779,0,0,1-1.185-.909,4.142,4.142,0,0,1-.764-1.3,4.278,4.278,0,0,1-.27-1.494,4.149,4.149,0,0,1,.286-1.527,4.209,4.209,0,0,1,.792-1.292,3.831,3.831,0,0,1,1.19-.893,3.36,3.36,0,0,1,1.482-.331,3.291,3.291,0,0,1,1.522.354,3.82,3.82,0,0,1,1.179.927,4.282,4.282,0,0,1,.758,1.3,4.2,4.2,0,0,1,.27,1.477,4.143,4.143,0,0,1-.287,1.527,4.189,4.189,0,0,1-.786,1.286,3.8,3.8,0,0,1-1.185.887A3.359,3.359,0,0,1,395.037,148.4Zm-2.954-4.043a3.714,3.714,0,0,0,.213,1.252,3.4,3.4,0,0,0,.606,1.067,2.978,2.978,0,0,0,.932.741,2.6,2.6,0,0,0,1.2.275,2.57,2.57,0,0,0,1.224-.292,2.984,2.984,0,0,0,.932-.764,3.533,3.533,0,0,0,.59-1.067,3.668,3.668,0,0,0-.011-2.465,3.43,3.43,0,0,0-.612-1.061,3.023,3.023,0,0,0-.932-.736,2.582,2.582,0,0,0-1.19-.275,2.614,2.614,0,0,0-1.224.286,2.922,2.922,0,0,0-.932.758,3.528,3.528,0,0,0-.59,1.067A3.658,3.658,0,0,0,392.083,144.359Z" transform="translate(-353.843 -140.316)" fill="#00a1ed"/>
    <path id="Path_82" data-name="Path 82" d="M431.34,144.345a4.26,4.26,0,0,1,.253-1.432,3.969,3.969,0,0,1,.735-1.275,3.771,3.771,0,0,1,1.191-.915,3.538,3.538,0,0,1,1.606-.354,3.3,3.3,0,0,1,1.819.483,3.03,3.03,0,0,1,1.123,1.258l-.629.382a2.428,2.428,0,0,0-.461-.663,2.476,2.476,0,0,0-1.235-.679,3.118,3.118,0,0,0-.662-.073,2.668,2.668,0,0,0-1.269.292,2.921,2.921,0,0,0-.927.764,3.326,3.326,0,0,0-.567,1.061,3.848,3.848,0,0,0-.191,1.2,3.543,3.543,0,0,0,.23,1.269,3.591,3.591,0,0,0,.629,1.073,3.018,3.018,0,0,0,.943.741,2.591,2.591,0,0,0,1.185.275,2.968,2.968,0,0,0,.691-.084,2.675,2.675,0,0,0,.685-.269,2.879,2.879,0,0,0,.612-.461,2.386,2.386,0,0,0,.472-.668l.651.337a2.442,2.442,0,0,1-.539.792,3.541,3.541,0,0,1-.775.578,3.857,3.857,0,0,1-.9.359,3.732,3.732,0,0,1-.938.124,3.188,3.188,0,0,1-1.5-.359,3.941,3.941,0,0,1-1.179-.938,4.344,4.344,0,0,1-.769-1.314A4.248,4.248,0,0,1,431.34,144.345Z" transform="translate(-385.407 -140.358)" fill="#00a1ed"/>
    <path id="Path_83" data-name="Path 83" d="M470.322,148.555v-7.962h.775v4.627l4.391-4.638h.865l-3.257,3.5,3.437,4.47h-.865l-3.055-4.009-1.516,1.561v2.448Z" transform="translate(-416.135 -140.525)" fill="#00a1ed"/>
    <path id="Path_84" data-name="Path 84" d="M509.675,147.858v.7h-5.357v-7.974h5.256v.7h-4.481v2.875H509v.663h-3.908v3.044Z" transform="translate(-442.932 -140.525)" fill="#00a1ed"/>
    <path id="Path_85" data-name="Path 85" d="M536.829,148.555v-7.974h3.358a2.1,2.1,0,0,1,.955.219,2.481,2.481,0,0,1,.752.573,2.635,2.635,0,0,1,.489.8,2.5,2.5,0,0,1,.174.91,2.7,2.7,0,0,1-.129.837,2.506,2.506,0,0,1-.365.719,2.263,2.263,0,0,1-.562.539,1.964,1.964,0,0,1-.73.3l1.965,3.077h-.887l-1.887-2.942H537.6v2.942Zm.775-3.639h2.617a1.338,1.338,0,0,0,.635-.151,1.511,1.511,0,0,0,.489-.41,1.98,1.98,0,0,0,.314-.584,2.09,2.09,0,0,0,.112-.685,1.886,1.886,0,0,0-.129-.691,1.909,1.909,0,0,0-.348-.578,1.663,1.663,0,0,0-.517-.393,1.4,1.4,0,0,0-.623-.146H537.6Z" transform="translate(-468.559 -140.525)" fill="#00a1ed"/>
  </g>
  <g id="Group_1429" data-name="Group 1429">
    <path id="Path_86" data-name="Path 86" d="M62.211,135.879c-.382-.01-.765-.014-1.147,0a.58.58,0,0,1-.328-.07,1.617,1.617,0,1,0,.023.979c.495-.044.975-.009,1.453-.023.353-.01.556-.163.566-.426S62.574,135.888,62.211,135.879Zm-3.01,1.3a.835.835,0,1,1,.835-.835A.835.835,0,0,1,59.2,137.175Z" transform="translate(-53.745 -124.189)" fill="#00a1ed"/>
    <path id="Path_87" data-name="Path 87" d="M49,159.6a3,3,0,0,0-.352-.011H42.535a1.744,1.744,0,0,0-1.945,1.942v1.045l-.08.059a1.616,1.616,0,1,0,1.03-.018l-.058-.044c0-.345,0-.724,0-1.1,0-.728.261-.984,1-.984H48.62a2.292,2.292,0,0,0,.41-.024A.432.432,0,0,0,49,159.6Zm-7.176,4.619a.835.835,0,1,1-.835-.835A.835.835,0,0,1,41.824,164.222Z" transform="translate(-39.431 -143.797)" fill="#00a1ed"/>
    <path id="Path_88" data-name="Path 88" d="M76.574,174.7c-.224-.012-.45,0-.675-.007a5.7,5.7,0,0,1-.917-.024c-.059-.08-.116-.154-.173-.224a1.617,1.617,0,1,0,.053,1.3c.035-.049.069-.1.1-.152a.712.712,0,0,1,.335-.043c.421,0,.842,0,1.262-.006a.427.427,0,0,0,.472-.414A.444.444,0,0,0,76.574,174.7Zm-3.216,1.351a.835.835,0,1,1,.835-.835A.835.835,0,0,1,73.359,176.05Z" transform="translate(-64.899 -154.79)" fill="#00a1ed"/>
    <path id="Path_89" data-name="Path 89" d="M151.258,173.538a1.618,1.618,0,0,0-1.542,1.13,1.1,1.1,0,0,1-.33.025c-.421,0-.842-.006-1.262.01a.432.432,0,0,0-.432.43.426.426,0,0,0,.444.412c.146.008.293,0,.44,0h1.115a1.617,1.617,0,1,0,1.567-2.012Zm.027,2.512a.835.835,0,1,1,.835-.835A.835.835,0,0,1,151.285,176.05Z" transform="translate(-124.767 -154.79)" fill="#00a1ed"/>
    <path id="Path_90" data-name="Path 90" d="M167.177,162.659l-.109-.078c0-.378,0-.769,0-1.159a1.719,1.719,0,0,0-1.819-1.831q-3.159,0-6.318,0a2.086,2.086,0,0,0-.293.013.428.428,0,0,0-.042.848,1.807,1.807,0,0,0,.408.033q2.351,0,4.7,0c.568,0,1.136,0,1.7,0a.714.714,0,0,1,.724.537,7.081,7.081,0,0,1,.023,1.572,1.617,1.617,0,1,0,1.02.059Zm-.574,2.4a.835.835,0,1,1,.835-.835A.835.835,0,0,1,166.6,165.055Z" transform="translate(-133.085 -143.795)" fill="#00a1ed"/>
    <path id="Path_91" data-name="Path 91" d="M165.8,134.716a1.618,1.618,0,0,0-1.551,1.16c-.3,0-.575,0-.848,0a3.307,3.307,0,0,0-.82.039.4.4,0,0,0-.345.416.42.42,0,0,0,.383.418,2.3,2.3,0,0,0,.322.014c.434.014.87-.032,1.3.018a1.617,1.617,0,1,0,1.553-2.065Zm.026,2.38a.835.835,0,1,1,.835-.835A.835.835,0,0,1,165.826,137.1Z" transform="translate(-136.232 -124.189)" fill="#00a1ed"/>
    <g id="Group_1428" data-name="Group 1428" transform="translate(8.475)">
      <path id="Path_92" data-name="Path 92" d="M96.476,85a7,7,0,0,0-7,7v.193h1.483V92a5.514,5.514,0,0,1,11.027,0v.193h1.483V92A7,7,0,0,0,96.476,85Z" transform="translate(-87.357 -85)" fill="#001730"/>
      <path id="Path_93" data-name="Path 93" d="M97.132,107.839c-.084,0-5.78-.451-8.67-2.876,0,0-1.988,2.2-8.67,2.833.084,0-3.129,11.884,8.656,18.538C88.448,126.334,99.331,121.259,97.132,107.839Zm-8.685,16.3a13.487,13.487,0,0,1-6.874-14.722c5.307-.5,6.885-2.25,6.885-2.25,2.3,1.926,6.818,2.284,6.886,2.284C97.09,120.1,88.447,124.135,88.447,124.135Z" transform="translate(-79.454 -100.736)" fill="#001730"/>
      <path id="Path_94" data-name="Path 94" d="M117.331,141.276a1.861,1.861,0,1,0-2.739,1.641l-.539,2.694h2.812l-.5-2.7A1.861,1.861,0,0,0,117.331,141.276Z" transform="translate(-106.377 -127.893)" fill="#00a1ed"/>
    </g>
  </g>
</svg>
