<svg xmlns="http://www.w3.org/2000/svg" width="74" height="74" viewBox="0 0 74 74">
  <g id="Group_1537" data-name="Group 1537" transform="translate(-1008 -2268)">
    <rect id="Rectangle_430" data-name="Rectangle 430" width="74" height="74" rx="18" transform="translate(1008 2268)" fill="#ffecfc"/>
    <path id="Path_163" data-name="Path 163" d="M-43.051-3.313c.821,0,1.21-.41,1.21-.889,0-1.1-1.774-.684-1.774-1.321,0-.227.188-.406.65-.406a1.662,1.662,0,0,1,.825.235l.175-.432a1.891,1.891,0,0,0-1-.265c-.821,0-1.205.41-1.205.893,0,1.111,1.778.688,1.778,1.333,0,.222-.2.389-.662.389a1.658,1.658,0,0,1-.987-.329l-.192.432A1.928,1.928,0,0,0-43.051-3.313Zm5.069,0a1.518,1.518,0,0,0,1.188-.5l-.359-.342a1.04,1.04,0,0,1-.8.355,1.021,1.021,0,0,1-1.068-1.051A1.021,1.021,0,0,1-37.952-5.9a1.051,1.051,0,0,1,.8.35l.359-.338a1.515,1.515,0,0,0-1.184-.5,1.525,1.525,0,0,0-1.6,1.539A1.523,1.523,0,0,0-37.982-3.313Zm6.2-.043-.688-.983a.956.956,0,0,0,.637-.945c0-.662-.487-1.064-1.274-1.064h-1.231v2.992h.556v-.872h.675a1.041,1.041,0,0,0,.115,0l.611.876Zm-.611-1.927c0,.376-.252.6-.739.6h-.65V-5.877h.65C-32.644-5.877-32.392-5.659-32.392-5.283ZM-28-3.313a1.208,1.208,0,0,0,1.308-1.346V-6.347h-.547V-4.68c0,.615-.274.88-.756.88s-.761-.265-.761-.88V-6.347h-.556v1.688A1.209,1.209,0,0,0-28-3.313Zm6.129-1.6a.717.717,0,0,0,.385-.658c0-.474-.385-.778-1.1-.778h-1.4v2.992h1.487c.769,0,1.171-.3,1.171-.812A.737.737,0,0,0-21.874-4.911Zm-.778-1c.385,0,.6.137.6.415s-.218.41-.6.41h-.786v-.825Zm.111,2.12h-.9v-.863h.9c.419,0,.645.132.645.432S-22.122-3.792-22.541-3.792Zm5.842-1.12a.717.717,0,0,0,.385-.658c0-.474-.385-.778-1.1-.778h-1.4v2.992h1.487c.769,0,1.171-.3,1.171-.812A.737.737,0,0,0-16.7-4.911Zm-.778-1c.385,0,.6.137.6.415s-.218.41-.6.41h-.786v-.825Zm.111,2.12h-.9v-.863h.9c.419,0,.645.132.645.432S-16.946-3.792-17.365-3.792Zm3.723.436h.556V-6.347h-.556Zm5.394-2.992v2.026L-9.9-6.347h-.457v2.992H-9.8V-5.381l1.65,2.026H-7.7V-6.347Zm5.321,2.393a1.208,1.208,0,0,1-.615.154A1.03,1.03,0,0,1-4.625-4.851,1.024,1.024,0,0,1-3.539-5.9a1.11,1.11,0,0,1,.825.342l.35-.342a1.545,1.545,0,0,0-1.2-.487,1.529,1.529,0,0,0-1.62,1.539A1.527,1.527,0,0,0-3.573-3.313,1.894,1.894,0,0,0-2.4-3.693V-4.886h-.526Z" transform="translate(1063.559 2321.759)" fill="#f0d"/>
    <path id="Path_164" data-name="Path 164" d="M3.29-17.622h7.388c5.178,0,8.727-3.013,8.727-7.812s-3.549-7.812-8.727-7.812H3.29Zm4.419-3.526v-8.57H10.5c2.656,0,4.441,1.585,4.441,4.285s-1.786,4.285-4.441,4.285Zm22.966-12.1v8.325l-6.9-8.325H20.141v15.623h4.33v-8.325l6.9,8.325h3.638V-33.246ZM44.335-17.31a8.264,8.264,0,0,0,6.718-2.946L48.241-22.8a4.618,4.618,0,0,1-3.683,1.83,4.189,4.189,0,0,1-4.352-4.464A4.189,4.189,0,0,1,44.558-29.9a4.618,4.618,0,0,1,3.683,1.83l2.812-2.544a8.264,8.264,0,0,0-6.718-2.946c-4.955,0-8.593,3.37-8.593,8.124S39.38-17.31,44.335-17.31Z" transform="translate(1016.004 2330.412)" fill="#056dfe"/>
    <path id="Path_70" data-name="Path 70" d="M1340.252-956.9s-46.225.076-61.124,14.675c0,0-1.094-5.8,7.138-8.691.474-.166.948-.333,1.417-.513C1291.646-952.942,1312.355-960.142,1340.252-956.9Z" transform="translate(-263.984 3256.372)" fill="#f0d" stroke="#fff" stroke-miterlimit="10" stroke-width="1"/>
  </g>
</svg>
