<svg id="Group_1520" data-name="Group 1520" xmlns="http://www.w3.org/2000/svg" width="55.884" height="23.252" viewBox="0 0 55.884 23.252">
  <text id="SCRUBBING" transform="translate(14.663 22.252)" fill="#f0d" font-size="2" font-family="Montserrat-SemiBold, Montserrat" font-weight="600" letter-spacing="0.45em"><tspan x="-9.899" y="0">SCRUBBING</tspan></text>
  <text id="DNC" transform="translate(3.566 18)" fill="#056dfe" font-size="19" font-family="Montserrat-ExtraBold, Montserrat" font-weight="800" letter-spacing="-0.071em"><tspan x="0" y="0">DNC</tspan></text>
  <path id="Path_70" data-name="Path 70" d="M1333.634-956.989s-41.224.068-54.512,13.088c0,0-.975-5.176,6.365-7.751.423-.148.845-.3,1.264-.457C1290.286-953.46,1308.756-959.881,1333.634-956.989Z" transform="translate(-1277.866 964.17)" fill="#f0d" stroke="#fff" stroke-miterlimit="10" stroke-width="2"/>
  <g id="Group_1424" data-name="Group 1424" transform="translate(45.868 1.433)">
    <path id="Path_71" data-name="Path 71" d="M1784.047-1011.113a1.514,1.514,0,0,0-1.514,1.514,1.514,1.514,0,0,0,1.514,1.513,1.514,1.514,0,0,0,1.514-1.513A1.514,1.514,0,0,0,1784.047-1011.113Zm.6,1.332a.421.421,0,0,1-.421-.421.421.421,0,0,1,.421-.421.421.421,0,0,1,.421.421A.421.421,0,0,1,1784.644-1009.781Z" transform="translate(-1779.968 1011.113)" fill="#f0d"/>
    <path id="Path_72" data-name="Path 72" d="M1812.292-985.505a1.034,1.034,0,0,0-1.034,1.034,1.034,1.034,0,0,0,1.034,1.034,1.034,1.034,0,0,0,1.034-1.034A1.034,1.034,0,0,0,1812.292-985.505Zm.407.911a.288.288,0,0,1-.287-.288.288.288,0,0,1,.287-.288.288.288,0,0,1,.288.288A.288.288,0,0,1,1812.7-984.594Z" transform="translate(-1805.999 987.907)" fill="#f0d"/>
    <path id="Path_73" data-name="Path 73" d="M1756.332-991.86a1.151,1.151,0,0,0-1.151,1.151,1.151,1.151,0,0,0,1.151,1.151,1.151,1.151,0,0,0,1.151-1.151A1.151,1.151,0,0,0,1756.332-991.86Zm.453,1.013a.32.32,0,0,1-.32-.32.32.32,0,0,1,.32-.32.32.32,0,0,1,.32.32A.32.32,0,0,1,1756.786-990.846Z" transform="translate(-1755.181 993.666)" fill="#f0d"/>
  </g>
  <g id="Group_1425" data-name="Group 1425" transform="translate(0 12.279)">
    <path id="Path_74" data-name="Path 74" d="M1267.2-884.385a1.264,1.264,0,0,0-1.047,1.448,1.264,1.264,0,0,0,1.448,1.047,1.264,1.264,0,0,0,1.047-1.448A1.264,1.264,0,0,0,1267.2-884.385Zm.668,1.019a.351.351,0,0,1-.4-.291.351.351,0,0,1,.291-.4.351.351,0,0,1,.4.291A.351.351,0,0,1,1267.87-883.365Z" transform="translate(-1266.139 885.44)" fill="#f0d"/>
    <path id="Path_75" data-name="Path 75" d="M1295.956-895.471a.824.824,0,0,0-.683.945.824.824,0,0,0,.945.683.824.824,0,0,0,.683-.945A.824.824,0,0,0,1295.956-895.471Zm.436.665a.229.229,0,0,1-.262-.19.229.229,0,0,1,.19-.263.229.229,0,0,1,.263.19A.229.229,0,0,1,1296.391-894.806Z" transform="translate(-1292.531 895.482)" fill="#f0d"/>
  </g>
</svg>
